<svg width="100" height="25" viewBox="0 0 100 25" fill="none" xmlns="http://www.w3.org/2000/svg">
<path d="M21.2316 0V14.5804C21.2316 20.9091 17.6632 24.9301 10.6336 24.9301C3.56833 24.9301 0 20.9091 0 14.5804V0H5.88775V14.0909C5.88775 17.1678 7.4935 19.3357 10.6336 19.3357C13.7738 19.3357 15.3795 17.1678 15.3795 14.0909V0H21.2316Z" fill="#0084FF"/>
<path d="M33.7055 25C30.9935 25 29.1737 23.8462 28.1389 22.0979H28.0675V24.4755H24.5705V0H28.0675V10.6993H28.1389C29.1737 8.95105 30.9935 7.7972 33.7055 7.7972C38.0588 7.7972 41.7342 11.014 41.7342 16.3986C41.7342 21.7832 38.0588 25 33.7055 25ZM32.9561 21.6434C36.0249 21.6434 38.0231 19.4755 38.0231 16.3986C38.0231 13.3217 36.0249 11.1538 32.9561 11.1538C29.8873 11.1538 27.8891 13.3217 27.8891 16.3986C27.8891 19.4755 29.8873 21.6434 32.9561 21.6434Z" fill="#0F213C"/>
<path d="M53.7417 7.83217V11.8531H53.2064C49.7808 11.8531 47.9609 13.4615 47.9609 17.3077V24.4755H44.464V8.32168H47.9609V11.8531H48.0323C48.8173 9.44056 50.7086 7.83217 53.4919 7.83217H53.7417Z" fill="#0F213C"/>
<path d="M61.2989 25C56.9455 25 53.2701 21.7832 53.2701 16.3986C53.2701 11.014 56.9455 7.7972 61.2989 7.7972C64.0108 7.7972 65.8307 8.95105 66.8655 10.6993H66.9368V8.32168H70.4338V24.4755H66.9368V22.0979H66.8655C65.8307 23.8462 64.0108 25 61.2989 25ZM62.0482 21.6434C65.117 21.6434 67.1153 19.4755 67.1153 16.3986C67.1153 13.3217 65.117 11.1538 62.0482 11.1538C58.9795 11.1538 56.9812 13.3217 56.9812 16.3986C56.9812 19.4755 58.9795 21.6434 62.0482 21.6434Z" fill="#0F213C"/>
<path d="M81.9468 11.2238H78.5925V19.6853C78.5925 20.8392 79.0921 21.3636 80.3053 21.3636H81.1617V24.5105H79.556C76.6656 24.5105 75.0956 23.007 75.0956 20.3497V11.2238H72.1695V8.32168H75.0956V1.85315H78.5925V8.32168H81.9468V11.2238Z" fill="#0F213C"/>
<path d="M90.9721 7.7972C96.1462 7.7972 100 11.4336 100 16.3986C100 21.3636 96.1462 25 90.9721 25C85.798 25 81.9442 21.3636 81.9442 16.3986C81.9442 11.4336 85.798 7.7972 90.9721 7.7972ZM90.9721 11.1538C87.832 11.1538 85.6553 13.2168 85.6553 16.3986C85.6553 19.5804 87.832 21.6434 90.9721 21.6434C94.1123 21.6434 96.2889 19.5804 96.2889 16.3986C96.2889 13.2168 94.1123 11.1538 90.9721 11.1538Z" fill="#0F213C"/>
</svg>
