<svg width="1440" height="773" viewBox="0 0 1440 773" fill="none" xmlns="http://www.w3.org/2000/svg">
<g clip-path="url(#clip0_15_447)">
<path fill-rule="evenodd" clip-rule="evenodd" d="M413.796 259.655C449.309 363.469 551.941 450.713 535.952 559.262C519.915 668.126 391.291 719.023 332.434 811.997C277.927 898.1 277.064 1012.65 203.98 1083.67C123.712 1161.66 18.0933 1221.66 -93.7398 1226.12C-206.272 1230.61 -311.906 1172.61 -404.111 1107.95C-490.839 1047.12 -545.089 955.973 -604.238 868.095C-666.47 775.639 -751.357 689.929 -760.251 578.836C-769.283 466.02 -701.594 364.964 -652.692 262.898C-600.958 154.924 -573.493 15.1774 -465.46 -36.4317C-356.631 -88.4203 -231.562 21.8734 -112.184 4.69059C33.4492 -16.2712 162.345 -210.031 294.744 -145.852C423.707 -83.3383 367.409 124.054 413.796 259.655Z" fill="#0084FF" fill-opacity="0.5"/>
<path fill-rule="evenodd" clip-rule="evenodd" d="M278.129 292.544C313.642 396.358 416.274 483.602 400.285 592.151C384.248 701.015 255.624 751.911 196.767 844.886C142.26 930.989 141.397 1045.54 68.3129 1116.56C-11.9546 1194.55 -117.574 1254.55 -229.407 1259.01C-341.939 1263.5 -447.573 1205.5 -539.778 1140.83C-626.506 1080.01 -680.756 988.862 -739.905 900.984C-802.137 808.528 -887.024 722.818 -895.918 611.724C-904.95 498.909 -837.261 397.853 -788.359 295.787C-736.625 187.813 -709.16 48.0661 -601.127 -3.54299C-492.298 -55.5317 -367.229 54.762 -247.851 37.5793C-102.218 16.6175 26.6781 -177.142 159.077 -112.963C288.04 -50.4496 231.742 156.943 278.129 292.544Z" fill="#0084FF"/>
<path d="M1214 -81.4058C1224.12 62.1079 1316.74 172.495 1420.86 165.152C1524.98 157.808 1601.19 35.5137 1591.06 -108" stroke="#0084FF" stroke-width="4"/>
</g>
<defs>
<clipPath id="clip0_15_447">
<rect width="1440" height="773" fill="white"/>
</clipPath>
</defs>
</svg>
